<?xml version="1.0" encoding="UTF-8"?>
<svg version="1.1" viewBox="0 0 100 100" xmlns="http://www.w3.org/2000/svg">
<g fill-rule="evenodd">
<g transform="translate(0 -1)" fill-rule="nonzero">
<g transform="translate(0 1)" id="egld-token">
<path d="m79.6 19.424c-0.4-0.4383-0.6-0.8766-0.6-1.4245 0-0.54787 0.2-0.98617 0.6-1.4245 0.8-0.76702 2-0.76702 2.8 0 0.4 0.4383 0.6 0.8766 0.6 1.4245 0 0.54787-0.2 0.98617-0.6 1.4245-0.4 0.32872-0.9 0.54787-1.4 0.54787-0.5 0.10957-1-0.10957-1.4-0.54787"/>
<path id="Path" d="m74.556 24.448c-0.33333-0.44138-0.55556-0.88276-0.55556-1.4345s0.22222-0.9931 0.55556-1.4345c0.77778-0.77241 2.1111-0.77241 2.8889 0 0.33333 0.44138 0.55556 0.88276 0.55556 1.4345s-0.22222 0.9931-0.55556 1.4345c-0.44444 0.33103-0.88889 0.55172-1.4444 0.55172s-1-0.22069-1.4444-0.55172"/>
<path id="Path" d="m69.556 30.448c-0.33333-0.33103-0.55556-0.88276-0.55556-1.4345s0.22222-0.9931 0.55556-1.4345c0.77778-0.77241 2.1111-0.77241 2.8889 0 0.33333 0.33103 0.55556 0.88276 0.55556 1.4345s-0.22222 0.9931-0.55556 1.4345c-0.44444 0.44138-0.88889 0.55172-1.4444 0.55172s-1.1111-0.22069-1.4444-0.55172"/>
<path id="Path" d="m64.6 35.448c-0.4-0.33103-0.6-0.88276-0.6-1.4345s0.2-0.9931 0.6-1.4345c0.8-0.77241 2-0.77241 2.8 0 0.4 0.33103 0.6 0.88276 0.6 1.4345s-0.2 1.1034-0.6 1.4345c-0.4 0.44138-0.9 0.55172-1.4 0.55172s-1-0.11034-1.4-0.55172"/>
<path id="Path" d="m59.556 40.424c-0.44444-0.32872-0.55556-0.8766-0.55556-1.4245 0-0.54787 0.22222-0.98617 0.55556-1.4245 0.77778-0.76702 2.1111-0.76702 2.8889 0 0.44444 0.32872 0.55556 0.8766 0.55556 1.4245 0 0.54787-0.22222 1.0957-0.55556 1.4245-0.33333 0.4383-0.88889 0.54787-1.4444 0.54787-0.55556 0.10957-1.1111-0.10957-1.4444-0.54787"/>
<path id="Path" d="m53 44.014c0-0.55172 0.22222-0.9931 0.55556-1.4345 0.77778-0.77241 2.1111-0.77241 2.8889 0 0.44444 0.44138 0.55556 0.88276 0.55556 1.4345s-0.22222 0.9931-0.55556 1.4345c-0.33333 0.33103-0.88889 0.55172-1.4444 0.55172s-1-0.22069-1.4444-0.55172c-0.33333-0.33103-0.55556-0.88276-0.55556-1.4345z"/>
<path id="Path" d="m43.556 56.424c-0.33333-0.32872-0.55556-0.8766-0.55556-1.4245 0-0.54787 0.22222-0.98617 0.55556-1.4245 0.77778-0.76702 2.1111-0.76702 2.8889 0 0.44444 0.4383 0.55556 0.8766 0.55556 1.4245 0 0.54787-0.22222 0.98617-0.55556 1.4245-0.33333 0.4383-0.88889 0.54787-1.4444 0.54787-0.55556 0.10957-1-0.10957-1.4444-0.54787"/>
<path id="Path" d="m38.6 61.424c-0.4-0.32872-0.6-0.8766-0.6-1.4245 0-0.54787 0.2-0.98617 0.6-1.4245 0.8-0.76702 2-0.76702 2.8 0 0.4 0.4383 0.6 0.8766 0.6 1.4245 0 0.54787-0.2 0.98617-0.6 1.4245-0.4 0.4383-0.9 0.54787-1.4 0.54787-0.5 0.10957-1-0.10957-1.4-0.54787"/>
<path id="Path" d="m33.556 66.448c-0.33333-0.33103-0.55556-0.88276-0.55556-1.4345s0.22222-1.1034 0.55556-1.4345c0.77778-0.77241 2.1111-0.77241 2.8889 0 0.33333 0.33103 0.55556 0.88276 0.55556 1.4345s-0.22222 0.9931-0.55556 1.4345c-0.44444 0.44138-0.88889 0.55172-1.4444 0.55172s-1-0.22069-1.4444-0.55172"/>
<path id="Path" d="m27.556 71.448c-0.44444-0.33103-0.55556-0.88276-0.55556-1.4345s0.22222-0.9931 0.55556-1.4345c0.77778-0.77241 2.1111-0.77241 2.8889 0 0.33333 0.44138 0.55556 0.88276 0.55556 1.4345s-0.22222 1.1034-0.55556 1.4345c-0.44444 0.44138-0.88889 0.55172-1.4444 0.55172s-1.1111-0.11034-1.4444-0.55172"/>
<path id="Path" d="m22.615 76.448c-0.41026-0.33103-0.61538-0.88276-0.61538-1.4345s0.20513-0.9931 0.61538-1.4345c0.82051-0.77241 2.0513-0.77241 2.7692 0 0.41026 0.44138 0.61538 0.88276 0.61538 1.4345s-0.20513 1.1034-0.61538 1.4345c-0.41026 0.33103-0.92308 0.55172-1.4359 0.55172-0.51282 0-1.0256-0.11034-1.3333-0.55172"/>
<path id="Path" d="m17.556 82.424c-0.44444-0.4383-0.55556-0.8766-0.55556-1.4245 0-0.54787 0.22222-0.98617 0.55556-1.4245 0.77778-0.76702 2.1111-0.76702 2.8889 0 0.44444 0.4383 0.55556 0.8766 0.55556 1.4245 0 0.54787-0.22222 0.98617-0.55556 1.4245-0.33333 0.32872-0.88889 0.54787-1.4444 0.54787-0.44444 0.10957-1-0.10957-1.4444-0.54787"/>
<path id="Path" d="m20.444 19.424c0.33333-0.4383 0.55556-0.8766 0.55556-1.4245 0-0.54787-0.22222-0.98617-0.55556-1.4245-0.77778-0.76702-2.1111-0.76702-2.8889 0-0.44444 0.4383-0.55556 0.8766-0.55556 1.4245 0 0.54787 0.22222 0.98617 0.55556 1.4245 0.33333 0.32872 0.88889 0.54787 1.4444 0.54787 0.55556 0.10957 1.1111-0.10957 1.4444-0.54787"/>
<path id="Path" d="m25.4 24.448c0.4-0.44138 0.6-0.88276 0.6-1.4345s-0.2-0.9931-0.6-1.4345c-0.8-0.77241-2-0.77241-2.8 0-0.4 0.44138-0.6 0.88276-0.6 1.4345s0.2 0.9931 0.6 1.4345c0.4 0.33103 0.9 0.55172 1.4 0.55172s1-0.22069 1.4-0.55172"/>
<path id="Path" d="m30.444 30.448c0.33333-0.33103 0.55556-0.88276 0.55556-1.4345s-0.22222-0.9931-0.55556-1.4345c-0.77778-0.77241-2.1111-0.77241-2.8889 0-0.33333 0.33103-0.55556 0.88276-0.55556 1.4345s0.22222 0.9931 0.55556 1.4345c0.44444 0.44138 0.88889 0.55172 1.4444 0.55172 0.44444 0 1-0.22069 1.4444-0.55172"/>
<path id="Path" d="m36.444 35.448c0.33333-0.33103 0.55556-0.88276 0.55556-1.4345s-0.22222-0.9931-0.55556-1.4345c-0.77778-0.77241-2.1111-0.77241-2.8889 0-0.33333 0.33103-0.55556 0.88276-0.55556 1.4345s0.22222 1.1034 0.55556 1.4345c0.44444 0.44138 0.88889 0.55172 1.4444 0.55172 0.44444 0 1-0.11034 1.4444-0.55172"/>
<path id="Path" d="m41.385 40.424c0.41026-0.32872 0.61538-0.8766 0.61538-1.4245 0-0.54787-0.20513-0.98617-0.61538-1.4245-0.71795-0.76702-2.0513-0.76702-2.7692 0-0.41026 0.32872-0.61538 0.8766-0.61538 1.4245 0 0.54787 0.20513 1.0957 0.61538 1.4245 0.41026 0.4383 0.92308 0.54787 1.4359 0.54787 0.51282 0.10957 1.0256-0.10957 1.3333-0.54787"/>
<path id="Path" d="m47 44.014c0-0.55172-0.22222-0.9931-0.55556-1.4345-0.77778-0.77241-2.1111-0.77241-2.8889 0-0.44444 0.44138-0.55556 0.88276-0.55556 1.4345s0.22222 0.9931 0.55556 1.4345c0.33333 0.33103 0.88889 0.55172 1.4444 0.55172s1-0.22069 1.4444-0.55172c0.44444-0.33103 0.55556-0.88276 0.55556-1.4345z"/>
<path id="Path" d="m51.444 51.448c0.44444-0.44138 0.55556-0.88276 0.55556-1.4345s-0.22222-0.9931-0.55556-1.4345c-0.77778-0.77241-2.1111-0.77241-2.8889 0-0.44444 0.44138-0.55556 0.88276-0.55556 1.4345s0.22222 0.9931 0.55556 1.4345c0.33333 0.33103 0.88889 0.55172 1.4444 0.55172s1.1111-0.22069 1.4444-0.55172"/>
<path id="Path" d="m56.385 56.424c0.41026-0.32872 0.61538-0.8766 0.61538-1.4245 0-0.54787-0.20513-0.98617-0.61538-1.4245-0.82051-0.76702-2.0513-0.76702-2.7692 0-0.41026 0.4383-0.61538 0.8766-0.61538 1.4245 0 0.54787 0.20513 0.98617 0.61538 1.4245 0.41026 0.4383 0.92308 0.54787 1.4359 0.54787 0.41026 0.10957 0.92308-0.10957 1.3333-0.54787"/>
<path id="Path" d="m62.444 61.424c0.33333-0.32872 0.55556-0.8766 0.55556-1.4245 0-0.54787-0.22222-0.98617-0.55556-1.4245-0.77778-0.76702-2.1111-0.76702-2.8889 0-0.33333 0.4383-0.55556 0.8766-0.55556 1.4245 0 0.54787 0.22222 0.98617 0.55556 1.4245 0.44444 0.4383 0.88889 0.54787 1.4444 0.54787 0.44444 0.10957 1-0.10957 1.4444-0.54787"/>
<path id="Path" d="m67.444 66.448c0.33333-0.33103 0.55556-0.88276 0.55556-1.4345s-0.22222-1.1034-0.55556-1.4345c-0.77778-0.77241-2.1111-0.77241-2.8889 0-0.33333 0.33103-0.55556 0.88276-0.55556 1.4345s0.22222 0.9931 0.55556 1.4345c0.44444 0.44138 0.88889 0.55172 1.4444 0.55172s1-0.22069 1.4444-0.55172"/>
<path id="Path" d="m72.444 71.448c0.44444-0.33103 0.55556-0.88276 0.55556-1.4345s-0.22222-0.9931-0.55556-1.4345c-0.77778-0.77241-2.1111-0.77241-2.8889 0-0.33333 0.44138-0.55556 0.88276-0.55556 1.4345s0.22222 1.1034 0.55556 1.4345c0.44444 0.44138 0.88889 0.55172 1.4444 0.55172s1.1111-0.11034 1.4444-0.55172"/>
<path id="a" d="m77.444 76.448c0.44444-0.33103 0.55556-0.88276 0.55556-1.4345s-0.22222-0.9931-0.55556-1.4345c-0.77778-0.77241-2.1111-0.77241-2.8889 0-0.44444 0.44138-0.55556 0.88276-0.55556 1.4345s0.22222 1.1034 0.55556 1.4345c0.33333 0.33103 0.88889 0.55172 1.4444 0.55172s1.1111-0.11034 1.4444-0.55172"/>
<path d="m82.385 82.424c0.41026-0.4383 0.61538-0.8766 0.61538-1.4245 0-0.54787-0.20513-0.98617-0.61538-1.4245-0.82051-0.76702-2.0513-0.76702-2.7692 0-0.41026 0.4383-0.61538 0.8766-0.61538 1.4245 0 0.54787 0.20513 0.98617 0.61538 1.4245 0.41026 0.32872 0.92308 0.54787 1.4359 0.54787 0.41026 0.10957 0.92308-0.10957 1.3333-0.54787"/>
<path d="m33.036 21c5.2647-3.4327 11.036-5.0481 17.414-5.149 6.2771 0 12.048 1.7163 17.414 5.149l11.137-11.106c-8.7069-6.5625-18.123-9.8942-28.551-9.8942-10.428 0-19.945 3.3317-28.449 9.8942l11.036 11.106z"/>
<path d="m21 66.742c-3.5854-5.3754-5.3268-11.157-5.3268-17.343 0-6.2883 1.7415-12.069 5.3268-17.343l-11.166-11.055c-6.5561 8.5196-9.8341 17.952-9.8341 28.5 0 10.345 3.278 19.879 9.9366 28.5l11.063-11.258z"/>
<path d="m67.964 78c-5.2647 3.5333-11.036 5.3504-17.313 5.4513-6.3783 0-12.25-1.7162-17.515-5.3504l-11.137 11.004c8.6057 6.6628 18.123 9.9941 28.652 9.8932 10.428-0.10095 19.844-3.4323 28.348-9.8932l-11.036-11.105z"/>
<path d="m79 32.258c3.5333 5.3754 5.3504 11.258 5.2494 17.648-0.10095 6.1868-1.8171 11.867-5.2494 17.039l11.105 11.055c6.5618-8.5196 9.8932-17.952 9.8932-28.297 0.10095-10.548-3.2304-20.082-9.8932-28.703l-11.105 11.258z"/>
<path d="m90 81c4.3636 0 8 3.5325 8 8 0 4.3636-3.5325 8-8 8-4.3636 0-8-3.5325-8-8s3.5325-8 8-8"/>
<path d="m10 81c4.4211 0 8 3.5325 8 8 0 4.3636-3.5789 8-8 8-4.4211 0-8-3.5325-8-8s3.5789-8 8-8"/>
<path d="m90 1c4.4211 0 8 3.5325 8 8 0 4.4675-3.5789 8-8 8s-8-3.5325-8-8c0-4.4675 3.5789-8 8-8"/>
<path d="m10 1c4.3636 0 8 3.5789 8 8 0 4.4211-3.5325 8-8 8-4.3636 0-8-3.5789-8-8 0-4.4211 3.5325-8 8-8"/>
</g>
</g>
</g>
</svg>
