<?xml version="1.0" standalone="no"?>
<!DOCTYPE svg PUBLIC "-//W3C//DTD SVG 20010904//EN"
 "http://www.w3.org/TR/2001/REC-SVG-20010904/DTD/svg10.dtd">
<svg version="1.0" xmlns="http://www.w3.org/2000/svg"
 width="520.000000pt" height="352.000000pt" viewBox="0 0 520.000000 352.000000"
 preserveAspectRatio="xMidYMid meet">

<g transform="translate(0.000000,352.000000) scale(0.100000,-0.100000)"
fill="#000000" stroke="none">
<path d="M95 3486 c-65 -28 -65 -30 -65 -401 0 -373 1 -379 64 -409 31 -15
164 -16 1503 -16 l1468 0 -3 -1292 c-2 -912 1 -1301 9 -1319 5 -15 22 -31 35
-38 35 -16 1823 -16 1858 0 13 7 30 23 35 38 8 18 11 407 9 1319 l-3 1292 33
0 c19 0 49 7 68 16 63 30 64 37 64 404 0 369 -2 379 -65 406 -50 20 -4963 20
-5010 0z m1125 -192 c0 -8 -4 -14 -10 -14 -5 0 -10 9 -10 21 0 11 5 17 10 14
6 -3 10 -13 10 -21z m46 -11 c-11 -11 -19 6 -11 24 8 17 8 17 12 0 3 -10 2
-21 -1 -24z m594 2 c5 3 10 -1 10 -9 0 -24 -15 -26 -34 -5 -10 12 -15 28 -11
37 6 14 8 13 16 -6 5 -13 13 -20 19 -17z m-773 7 c-9 -11 -8 -17 6 -26 14 -11
9 -13 -28 -13 -37 0 -42 2 -28 13 14 9 15 15 6 26 -10 12 -6 14 22 14 28 0 32
-2 22 -14z m316 -12 c-7 -28 -13 -25 -13 6 0 14 4 23 9 20 5 -3 7 -15 4 -26z
m687 14 c0 -8 -5 -12 -10 -9 -6 4 -8 11 -5 16 9 14 15 11 15 -7z m-532 -14 c3
-7 0 -10 -6 -6 -6 3 -13 2 -17 -4 -4 -6 -11 -8 -16 -4 -6 4 -5 11 2 20 14 17
31 14 37 -6z m35 0 c-3 -11 -7 -20 -9 -20 -2 0 -4 9 -4 20 0 11 4 20 9 20 5 0
7 -9 4 -20z m67 -23 c0 -5 -7 -2 -15 7 -8 8 -15 20 -15 27 0 14 29 -20 30 -34z
m63 23 c4 -15 0 -20 -13 -20 -13 0 -17 5 -13 20 3 11 9 20 13 20 4 0 10 -9 13
-20z m209 -22 c-13 -13 -26 8 -17 30 6 16 7 16 17 -1 7 -13 7 -22 0 -29z m119
30 c-1 -5 -4 -8 -7 -7 -4 0 -10 -5 -15 -12 -11 -18 -23 -4 -15 16 6 16 38 18
37 3z m-231 -24 c0 -8 -4 -14 -10 -14 -5 0 -10 9 -10 21 0 11 5 17 10 14 6 -3
10 -13 10 -21z m-516 0 c3 -8 2 -12 -4 -9 -6 3 -10 10 -10 16 0 14 7 11 14 -7z
m36 1 c0 -8 -4 -15 -10 -15 -5 0 -7 7 -4 15 4 8 8 15 10 15 2 0 4 -7 4 -15z
m-100 -5 c0 -5 -2 -10 -4 -10 -3 0 -8 5 -11 10 -3 6 -1 10 4 10 6 0 11 -4 11
-10z m250 0 c0 -5 -4 -10 -10 -10 -5 0 -10 5 -10 10 0 6 5 10 10 10 6 0 10 -4
10 -10z m3447 -362 c9 -28 11 -64 4 -100 0 -5 -34 -8 -75 -8 -82 0 -86 3 -86
70 0 66 5 70 79 70 67 0 67 0 78 -32z m-4320 -52 c-23 -34 -32 -28 -33 19 l-1
45 24 -22 c20 -19 21 -24 10 -42z m1270 -3 c-2 -16 -4 -5 -4 22 0 28 2 40 4
28 2 -13 2 -35 0 -50z m43 21 c0 -27 -4 -43 -10 -39 -5 3 -10 24 -10 46 0 21
5 39 10 39 6 0 10 -21 10 -46z m410 -1 c0 -35 -3 -44 -11 -36 -7 7 -9 25 -5
47 9 50 16 45 16 -11z m-286 -6 c1 -48 -18 -42 -22 7 -2 27 0 37 9 34 6 -2 12
-21 13 -41z m331 0 c0 -39 -9 -48 -19 -21 -11 28 -7 66 6 62 7 -3 13 -21 13
-41z m-527 -4 c3 -31 1 -33 -27 -33 -37 0 -43 25 -9 36 21 6 21 7 2 21 -18 14
-18 14 6 11 20 -2 26 -9 28 -35z m150 15 c2 -13 -3 -18 -17 -18 -12 0 -21 -4
-21 -10 0 -5 8 -10 17 -10 14 0 15 -2 4 -12 -20 -20 -55 27 -40 54 13 24 52
21 57 -4z m213 0 c6 -11 7 -27 3 -36 -6 -13 -8 -11 -13 12 -7 36 -25 36 -29 1
-4 -32 -22 -23 -22 11 0 14 -4 22 -10 19 -5 -3 -10 -15 -10 -26 0 -10 -4 -19
-10 -19 -11 0 -14 43 -3 53 3 4 24 6 45 5 27 -1 42 -7 49 -20z m357 0 c2 -13
-3 -18 -17 -18 -12 0 -21 -4 -21 -10 0 -5 8 -10 17 -10 13 0 14 -3 5 -12 -8
-8 -15 -8 -27 2 -15 13 -20 51 -8 64 13 13 48 1 51 -16z m52 14 c0 -4 -4 -12
-9 -17 -5 -6 -11 -19 -14 -30 -3 -11 -5 -4 -6 18 -1 27 3 37 14 37 8 0 15 -4
15 -8z m51 -1 c-12 -8 -11 -13 9 -29 l24 -19 -21 -12 c-14 -7 -24 -8 -28 -1
-3 5 2 10 12 10 15 0 14 3 -6 19 -25 19 -22 41 7 41 14 0 15 -2 3 -9z m203 0
c3 -5 -2 -8 -12 -7 -11 0 -18 -7 -20 -21 -3 -18 2 -23 20 -23 17 0 20 -3 9 -9
-19 -12 -39 -3 -46 20 -11 32 33 67 49 40z m84 -3 c30 -30 -4 -77 -41 -57 -29
17 -15 69 18 69 6 0 16 -5 23 -12z m129 -23 c2 -26 2 -27 -6 -9 -15 34 -31 39
-31 10 0 -34 -18 -43 -22 -11 -4 36 -22 36 -28 0 -5 -25 -7 -27 -13 -11 -4 10
-5 27 -2 37 5 16 15 19 53 17 44 -3 47 -5 49 -33z m-2877 15 c13 -9 13 -11 0
-20 -22 -15 -30 -12 -30 10 0 22 8 25 30 10z m1511 1 c8 12 10 12 19 -1 9 -13
11 -13 20 0 8 13 10 13 10 -2 0 -23 -11 -48 -21 -48 -5 0 -9 7 -9 15 0 8 -4
15 -10 15 -5 0 -10 -7 -10 -16 0 -25 -23 -10 -31 20 -7 24 -6 26 7 15 13 -10
17 -10 25 2z m529 -22 c0 -30 28 -23 32 9 l3 27 6 -28 c5 -23 2 -30 -15 -37
-12 -4 -26 -3 -33 2 -15 12 -18 62 -3 53 6 -3 10 -15 10 -26z m163 18 c3 -8 1
-20 -4 -28 -6 -10 -9 -7 -9 14 0 29 5 35 13 14z m47 -17 c5 0 14 8 19 18 9 14
10 14 11 1 0 -18 -26 -56 -33 -49 -3 3 -7 16 -10 30 -2 14 -2 19 0 13 3 -7 8
-13 13 -13z m297 0 c0 -17 -6 -26 -17 -26 -11 0 -17 9 -17 26 0 17 6 26 17 26
11 0 17 -9 17 -26z m569 -346 c42 20 41 20 48 1 4 -11 -5 -21 -29 -32 -19 -9
-35 -20 -35 -23 0 -3 16 -14 35 -23 23 -11 33 -21 29 -31 -5 -13 -11 -13 -46
1 -37 15 -42 15 -74 -1 -42 -20 -41 -20 -48 -1 -4 11 5 21 29 32 19 9 35 20
35 23 0 3 -16 14 -35 23 -23 11 -33 21 -29 31 5 13 11 13 46 -1 37 -15 42 -15
74 1z m454 -9 c0 -8 -4 -15 -10 -15 -5 0 -10 7 -10 15 0 8 5 15 10 15 6 0 10
-7 10 -15z m310 -51 c0 -30 -4 -54 -10 -54 -6 0 -10 27 -10 61 0 37 4 58 10
54 6 -3 10 -31 10 -61z m40 0 c0 -30 -4 -54 -10 -54 -6 0 -10 27 -10 61 0 37
4 58 10 54 6 -3 10 -31 10 -61z m-576 40 c34 -33 5 -94 -45 -94 -29 0 -29 1
-29 55 0 54 0 55 29 55 16 0 37 -7 45 -16z m171 7 c-36 -8 -39 -32 -5 -42 l25
-7 -27 -1 c-23 -1 -28 -6 -28 -26 0 -14 -4 -25 -10 -25 -5 0 -10 25 -10 55 l0
55 43 -1 c38 -1 39 -2 12 -8z m130 -31 c8 -36 21 -31 30 10 9 40 21 38 36 -7
l13 -38 14 38 c22 56 31 44 14 -18 -18 -63 -37 -71 -46 -20 -8 41 -21 38 -31
-5 -4 -17 -11 -30 -16 -30 -10 0 -27 39 -36 84 -8 40 13 26 22 -14z m405 25
c0 -8 6 -15 13 -16 10 0 10 -2 0 -6 -7 -2 -13 -15 -13 -27 0 -12 6 -28 13 -35
10 -10 8 -12 -8 -9 -21 3 -35 53 -27 91 5 21 22 23 22 2z m-612 -27 c19 -19
14 -28 -18 -28 -30 0 -40 -13 -19 -26 6 -3 16 -1 22 5 16 16 27 14 21 -4 -8
-19 -48 -19 -64 0 -19 23 -4 65 23 65 13 0 28 -5 35 -12z m132 -28 c0 -22 -4
-40 -10 -40 -5 0 -10 18 -10 40 0 22 5 40 10 40 6 0 10 -18 10 -40z m268 -3
c3 -38 3 -38 -30 -35 -29 3 -33 7 -34 33 -2 40 3 47 34 43 23 -3 27 -8 30 -41z
m162 39 c0 -2 3 -11 6 -20 5 -13 -1 -16 -25 -16 -31 0 -41 -13 -21 -25 6 -4
18 -1 26 6 16 13 30 6 19 -10 -8 -15 -48 -14 -63 1 -27 27 -6 68 35 68 13 0
23 -2 23 -4z"/>
<path d="M4830 2843 c0 -18 5 -23 25 -23 20 0 24 4 22 22 -5 31 -47 33 -47 1z"/>
<path d="M1820 2840 c0 -5 5 -10 11 -10 5 0 7 5 4 10 -3 6 -8 10 -11 10 -2 0
-4 -4 -4 -10z"/>
<path d="M2936 2873 c-12 -12 -6 -43 9 -43 8 0 15 9 15 19 0 21 -13 34 -24 24z"/>
<path d="M3507 2483 c-4 -3 -7 -22 -7 -40 0 -32 2 -34 28 -31 20 2 28 9 30 27
5 32 -32 63 -51 44z"/>
<path d="M3615 2450 c-3 -5 3 -10 15 -10 12 0 18 5 15 10 -3 6 -10 10 -15 10
-5 0 -12 -4 -15 -10z"/>
<path d="M4005 2450 c-3 -5 3 -10 14 -10 12 0 21 5 21 10 0 6 -6 10 -14 10 -8
0 -18 -4 -21 -10z"/>
<path d="M4015 2419 c-4 -6 -5 -13 -2 -16 7 -7 27 6 27 18 0 12 -17 12 -25 -2z"/>
<path d="M4175 2450 c-3 -5 3 -10 15 -10 12 0 18 5 15 10 -3 6 -10 10 -15 10
-5 0 -12 -4 -15 -10z"/>
</g>
</svg>
