<svg xmlns="http://www.w3.org/2000/svg" width="290" height="144" viewBox="0 0 290 144" fill="none">
<path fill-rule="evenodd" clip-rule="evenodd" d="M142.294 34.6478C142.294 34.9451 142.176 35.2302 141.966 35.4405C141.756 35.6507 141.47 35.7688 141.173 35.7688H111.773C110.286 35.7688 108.861 35.1783 107.809 34.1271C106.758 33.0759 106.168 31.6502 106.168 30.1637V20.6506C106.168 19.164 106.758 17.7383 107.809 16.6871C108.861 15.636 110.286 15.0454 111.773 15.0454H141.172C141.469 15.0454 141.754 15.1635 141.965 15.3738C142.175 15.584 142.293 15.8691 142.293 16.1664V34.6467L142.294 34.6478Z" stroke="#212529" stroke-width="1.22692"/>
<path fill-rule="evenodd" clip-rule="evenodd" d="M105.738 28.8086H93.4858V21.5947H105.739V28.8086H105.738Z" stroke="#212529" stroke-width="1.22692"/>
<path fill-rule="evenodd" clip-rule="evenodd" d="M142.37 31.605V18.9878L150.191 19.0808C150.486 19.0844 150.768 19.204 150.975 19.4139C151.182 19.6238 151.299 19.9069 151.299 20.2019V30.5894C151.297 30.7366 151.266 30.882 151.208 31.0174C151.15 31.1527 151.066 31.2753 150.961 31.3781C150.855 31.481 150.731 31.5621 150.594 31.6168C150.458 31.6715 150.311 31.6987 150.164 31.6969L142.37 31.6039V31.605Z" stroke="#212529" stroke-width="1.22692"/>
<path fill-rule="evenodd" clip-rule="evenodd" d="M92.6533 29.2256V27.414H-5.34058e-05V29.2256H92.6533ZM92.6533 22.8839V21.0723H-5.34058e-05V22.8839H92.6533Z" fill="url(#paint0_linear_1037_2178)"/>
<path d="M158.283 2.47005V3.02161C158.283 4.25986 159.287 5.26367 160.525 5.26367L175.233 5.26367C176.471 5.26367 177.475 4.25986 177.475 3.02161V2.47005C177.475 1.23179 176.471 0.227987 175.233 0.227987L160.525 0.227987C159.287 0.227987 158.283 1.23179 158.283 2.47005Z" fill="#212529"/>
<path d="M219.48 2.47005V3.02161C219.48 4.25986 220.484 5.26367 221.722 5.26367L236.43 5.26367C237.668 5.26367 238.672 4.25986 238.672 3.02161V2.47005C238.672 1.23179 237.668 0.227987 236.43 0.227987L221.722 0.227987C220.484 0.227987 219.48 1.23179 219.48 2.47005Z" fill="#212529"/>
<path d="M140.903 43.7561V5.64098C140.903 4.45171 141.375 3.31115 142.216 2.47021C143.057 1.62928 144.197 1.15685 145.387 1.15685L266.62 1.15685C279.533 1.15685 290 11.6239 290 24.5371V24.86C290 37.7731 279.533 48.2402 266.62 48.2402L145.387 48.2402C144.197 48.2402 143.057 47.7678 142.216 46.9269C141.375 46.0859 140.903 44.9454 140.903 43.7561V43.7561Z"/>
<path fill-rule="evenodd" clip-rule="evenodd" d="M142.024 43.7556C142.024 44.6475 142.378 45.5029 143.009 46.1336C143.64 46.7643 144.495 47.1187 145.387 47.1187L266.62 47.1187C278.913 47.1187 288.879 37.1527 288.879 24.8594V24.5366C288.879 12.2433 278.913 2.27734 266.62 2.27734L145.387 2.27734C144.495 2.27734 143.64 2.63166 143.009 3.26236C142.378 3.89306 142.024 4.74849 142.024 5.64043V43.7556Z" stroke="#212529" stroke-width="1.22692"/>
<path d="M165.006 14.7207V34.6751C165.006 35.6657 165.809 36.4688 166.8 36.4688L232.716 36.4688C233.707 36.4688 234.51 35.6657 234.51 34.6751V14.7207C234.51 13.7301 233.707 12.9271 232.716 12.9271L166.8 12.9271C165.809 12.9271 165.006 13.7301 165.006 14.7207Z" stroke="#212529" stroke-width="0.613461"/>
<path fill-rule="evenodd" clip-rule="evenodd" d="M180.137 27.5V21.8949C180.137 21.7462 180.197 21.6036 180.302 21.4985C180.407 21.3934 180.549 21.3343 180.698 21.3343L218.813 21.3343C218.962 21.3343 219.104 21.3934 219.209 21.4985C219.315 21.6036 219.374 21.7462 219.374 21.8949V27.5C219.374 27.6487 219.315 27.7913 219.209 27.8964C219.104 28.0015 218.962 28.0605 218.813 28.0605L180.698 28.0605C180.549 28.0605 180.407 28.0015 180.302 27.8964C180.197 27.7913 180.137 27.6487 180.137 27.5ZM183.548 26.1122L184.122 25.2445H184.136L184.702 26.1122L185.225 25.7299L184.578 24.9205V24.906L185.586 24.6335L185.387 24.0159L184.401 24.3836L184.46 23.3388H183.791L183.842 24.3836L182.864 24.0159L182.673 24.6335L183.673 24.906V24.9205L183.019 25.7299L183.548 26.1111V26.1122ZM187.929 26.1122L188.503 25.2445H188.517L189.083 26.1122L189.606 25.7299L188.958 24.9205V24.906L189.967 24.6335L189.767 24.0159L188.781 24.3836L188.84 23.3388H188.171L188.222 24.3836L187.245 24.0159L187.054 24.6335L188.053 24.906V24.9205L187.398 25.7299L187.929 26.1111V26.1122ZM192.309 26.1122L192.882 25.2445H192.897L193.463 26.1122L193.986 25.7299L193.339 24.9205V24.906L194.347 24.6335L194.147 24.0159L193.162 24.3836L193.221 23.3388H192.552L192.603 24.3836L191.625 24.0159L191.434 24.6335L192.434 24.906V24.9205L191.779 25.7299L192.309 26.1111V26.1122ZM196.69 26.1122L197.262 25.2445H197.278L197.844 26.1122L198.367 25.7299L197.719 24.9205V24.906L198.726 24.6335L198.528 24.0159L197.541 24.3836L197.601 23.3388H196.932L196.983 24.3836L196.006 24.0159L195.814 24.6335L196.814 24.906V24.9205L196.159 25.7299L196.69 26.1111V26.1122ZM201.069 26.1122L201.643 25.2445H201.658L202.224 26.1122L202.746 25.7299L202.1 24.9205V24.906L203.106 24.6335L202.908 24.0159L201.922 24.3836L201.982 23.3388H201.313L201.364 24.3836L200.386 24.0159L200.195 24.6335L201.195 24.906V24.9205L200.54 25.7299L201.069 26.1111V26.1122ZM205.45 26.1122L206.023 25.2445H206.038L206.605 26.1122L207.126 25.7299L206.479 24.9205V24.906L207.487 24.6335L207.289 24.0159L206.302 24.3836L206.362 23.3388H205.693L205.744 24.3836L204.765 24.0159L204.575 24.6335L205.575 24.906V24.9205L204.92 25.7299L205.45 26.1111V26.1122ZM209.83 26.1122L210.404 25.2445H210.419L210.985 26.1122L211.507 25.7299L210.859 24.9205V24.906L211.868 24.6335L211.669 24.0159L210.683 24.3836L210.742 23.3388H210.072L210.124 24.3836L209.146 24.0159L208.956 24.6335L209.955 24.906V24.9205L209.301 25.7299L209.83 26.1111V26.1122ZM214.21 26.1122L214.784 25.2445H214.799L215.365 26.1122L215.887 25.7299L215.24 24.9205V24.906L216.248 24.6335L216.05 24.0159L215.063 24.3836L215.123 23.3388H214.453L214.505 24.3836L213.526 24.0159L213.336 24.6335L214.336 24.906V24.9205L213.681 25.7299L214.21 26.1111V26.1122Z" fill="#212529"/>
<path fill-rule="evenodd" clip-rule="evenodd" d="M281.148 7.69626C271.731 -0.205917 257.69 1.02274 249.788 10.4394L164.354 112.256C164.07 112.594 163.856 112.985 163.723 113.407C163.59 113.828 163.542 114.271 163.58 114.711C163.619 115.151 163.744 115.58 163.948 115.971C164.152 116.363 164.431 116.711 164.769 116.995L193.719 141.285C194.057 141.569 194.448 141.784 194.869 141.917C195.291 142.049 195.734 142.098 196.174 142.059C196.614 142.021 197.042 141.896 197.434 141.692C197.826 141.488 198.173 141.209 198.457 140.87L283.891 39.0538C291.793 29.6371 290.565 15.5973 281.148 7.69513V7.69626Z" stroke="#212529" stroke-width="1.22692"/>
<path d="M277.408 24.68C277.408 18.1358 272.066 12.8307 265.476 12.8307C258.886 12.8307 253.544 18.1358 253.544 24.68C253.544 31.2242 258.886 36.5293 265.476 36.5293C272.066 36.5293 277.408 31.2242 277.408 24.68Z" stroke="#212529" stroke-width="0.613461"/>
<defs>
<linearGradient id="paint0_linear_1037_2178" x1="92.6533" y1="25.1489" x2="-5.34058e-05" y2="25.1489" gradientUnits="userSpaceOnUse">
<stop offset="0" stop-color="#212529" stop-opacity="0" />
<stop offset="1" stop-color="#212529" stop-opacity="1" />
</linearGradient>
</defs>
</svg>