<svg width="14" height="14" viewBox="0 0 14 14" fill="none" xmlns="http://www.w3.org/2000/svg"><path d="M7.98438 11.1562L12.1406 9.24219L13.6172 9.92578C13.8359 10.0352 14 10.2539 14 10.5C14 10.7734 13.8359 10.9922 13.6172 11.1016L7.62891 13.8633C7.21875 14.0547 6.75391 14.0547 6.34375 13.8633L0.355469 11.1016C0.136719 10.9922 0 10.7734 0 10.5C0 10.2539 0.136719 10.0352 0.355469 9.92578L1.83203 9.24219L5.98828 11.1562C6.61719 11.457 7.35547 11.457 7.98438 11.1562Z" fill="white"></path><path d="M12.1406 5.74219L13.6172 6.42578C13.8359 6.53516 14 6.75391 14 7C14 7.27344 13.8359 7.49219 13.6172 7.60156L7.62891 10.3633C7.21875 10.5547 6.75391 10.5547 6.34375 10.3633L0.355469 7.60156C0.136719 7.49219 0 7.27344 0 7C0 6.75391 0.136719 6.53516 0.355469 6.42578L1.83203 5.74219L5.98828 7.65625C6.61719 7.95703 7.35547 7.95703 7.98438 7.65625L12.1406 5.74219Z" fill="white"></path><path d="M6.34375 0.164062C6.75391 -0.0273438 7.21875 -0.0273438 7.62891 0.164062L13.6172 2.92578C13.8359 3.03516 14 3.25391 14 3.5C14 3.77344 13.8359 3.99219 13.6172 4.10156L7.62891 6.86328C7.21875 7.05469 6.75391 7.05469 6.34375 6.86328L0.355469 4.10156C0.136719 3.99219 0 3.77344 0 3.5C0 3.25391 0.136719 3.03516 0.355469 2.92578L6.34375 0.164062Z" fill="white"></path></svg>