<?xml version="1.0" encoding="UTF-8"?>
<svg width="327px" height="98px" viewBox="0 0 327 98" version="1.1" xmlns="http://www.w3.org/2000/svg" xmlns:xlink="http://www.w3.org/1999/xlink">
    <title>elrond</title>
    <g id="Page-1" stroke="none" stroke-width="1" fill="none" fill-rule="evenodd">
        <g id="elrond" fill="#000000" fill-rule="nonzero">
            <g id="Group">
                <path d="M78.2,19.5 C77.8,19.1 77.6,18.7 77.6,18.2 C77.6,17.7 77.8,17.3 78.2,16.9 C79,16.2 80.2,16.2 81,16.9 C81.4,17.3 81.6,17.7 81.6,18.2 C81.6,18.7 81.4,19.1 81,19.5 C80.6,19.8 80.1,20 79.6,20 C79.1,20.1 78.6,19.9 78.2,19.5" id="Path_3_"></path>
                <path d="M73.3,24.7 C73,24.3 72.8,23.9 72.8,23.4 C72.8,22.9 73,22.5 73.3,22.1 C74,21.4 75.2,21.4 75.9,22.1 C76.2,22.5 76.4,22.9 76.4,23.4 C76.4,23.9 76.2,24.3 75.9,24.7 C75.5,25 75.1,25.2 74.6,25.2 C74.1,25.2 73.7,25 73.3,24.7" id="Path"></path>
                <path d="M68,29.8 C67.7,29.5 67.5,29 67.5,28.5 C67.5,28 67.7,27.6 68,27.2 C68.7,26.5 69.9,26.5 70.6,27.2 C70.9,27.5 71.1,28 71.1,28.5 C71.1,29 70.9,29.4 70.6,29.8 C70.2,30.2 69.8,30.3 69.3,30.3 C68.8,30.3 68.3,30.1 68,29.8" id="Path"></path>
                <path d="M62.9,34.9 C62.5,34.6 62.3,34.1 62.3,33.6 C62.3,33.1 62.5,32.7 62.9,32.3 C63.7,31.6 64.9,31.6 65.7,32.3 C66.1,32.6 66.3,33.1 66.3,33.6 C66.3,34.1 66.1,34.6 65.7,34.9 C65.3,35.3 64.8,35.4 64.3,35.4 C63.8,35.4 63.3,35.3 62.9,34.9" id="Path"></path>
                <path d="M58,40 C57.6,39.7 57.5,39.2 57.5,38.7 C57.5,38.2 57.7,37.8 58,37.4 C58.7,36.7 59.9,36.7 60.6,37.4 C61,37.7 61.1,38.2 61.1,38.7 C61.1,39.2 60.9,39.7 60.6,40 C60.3,40.4 59.8,40.5 59.3,40.5 C58.8,40.6 58.3,40.4 58,40" id="Path"></path>
                <path d="M52.1,43.8 C52.1,43.3 52.3,42.9 52.6,42.5 C53.3,41.8 54.5,41.8 55.2,42.5 C55.6,42.9 55.7,43.3 55.7,43.8 C55.7,44.3 55.5,44.7 55.2,45.1 C54.9,45.4 54.4,45.6 53.9,45.6 C53.4,45.6 53,45.4 52.6,45.1 C52.3,44.8 52.1,44.3 52.1,43.8 Z" id="Path"></path>
                <path d="M42.6,55.1 C42.3,54.8 42.1,54.3 42.1,53.8 C42.1,53.3 42.3,52.9 42.6,52.5 C43.3,51.8 44.5,51.8 45.2,52.5 C45.6,52.9 45.7,53.3 45.7,53.8 C45.7,54.3 45.5,54.7 45.2,55.1 C44.9,55.5 44.4,55.6 43.9,55.6 C43.4,55.7 43,55.5 42.6,55.1" id="Path"></path>
                <path d="M37.3,60.2 C36.9,59.9 36.7,59.4 36.7,58.9 C36.7,58.4 36.9,58 37.3,57.6 C38.1,56.9 39.3,56.9 40.1,57.6 C40.5,58 40.7,58.4 40.7,58.9 C40.7,59.4 40.5,59.8 40.1,60.2 C39.7,60.6 39.2,60.7 38.7,60.7 C38.2,60.8 37.7,60.6 37.3,60.2" id="Path"></path>
                <path d="M32.4,65.4 C32.1,65.1 31.9,64.6 31.9,64.1 C31.9,63.6 32.1,63.1 32.4,62.8 C33.1,62.1 34.3,62.1 35,62.8 C35.3,63.1 35.5,63.6 35.5,64.1 C35.5,64.6 35.3,65 35,65.4 C34.6,65.8 34.2,65.9 33.7,65.9 C33.2,65.9 32.8,65.7 32.4,65.4" id="Path"></path>
                <path d="M27.3,70.5 C26.9,70.2 26.8,69.7 26.8,69.2 C26.8,68.7 27,68.3 27.3,67.9 C28,67.2 29.2,67.2 29.9,67.9 C30.2,68.3 30.4,68.7 30.4,69.2 C30.4,69.7 30.2,70.2 29.9,70.5 C29.5,70.9 29.1,71 28.6,71 C28.1,71 27.6,70.9 27.3,70.5" id="Path"></path>
                <path d="M22,75.6 C21.6,75.3 21.4,74.8 21.4,74.3 C21.4,73.8 21.6,73.4 22,73 C22.8,72.3 24,72.3 24.7,73 C25.1,73.4 25.3,73.8 25.3,74.3 C25.3,74.8 25.1,75.3 24.7,75.6 C24.3,75.9 23.8,76.1 23.3,76.1 C22.8,76.1 22.3,76 22,75.6" id="Path"></path>
                <path d="M17,80.7 C16.6,80.3 16.5,79.9 16.5,79.4 C16.5,78.9 16.7,78.5 17,78.1 C17.7,77.4 18.9,77.4 19.6,78.1 C20,78.5 20.1,78.9 20.1,79.4 C20.1,79.9 19.9,80.3 19.6,80.7 C19.3,81 18.8,81.2 18.3,81.2 C17.9,81.3 17.4,81.1 17,80.7" id="Path"></path>
                <path d="M19.6,19.5 C19.9,19.1 20.1,18.7 20.1,18.2 C20.1,17.7 19.9,17.3 19.6,16.9 C18.9,16.2 17.7,16.2 17,16.9 C16.6,17.3 16.5,17.7 16.5,18.2 C16.5,18.7 16.7,19.1 17,19.5 C17.3,19.8 17.8,20 18.3,20 C18.8,20.1 19.3,19.9 19.6,19.5" id="Path"></path>
                <path d="M24.7,24.7 C25.1,24.3 25.3,23.9 25.3,23.4 C25.3,22.9 25.1,22.5 24.7,22.1 C23.9,21.4 22.7,21.4 21.9,22.1 C21.5,22.5 21.3,22.9 21.3,23.4 C21.3,23.9 21.5,24.3 21.9,24.7 C22.3,25 22.8,25.2 23.3,25.2 C23.8,25.2 24.3,25 24.7,24.7" id="Path"></path>
                <path d="M29.9,29.8 C30.2,29.5 30.4,29 30.4,28.5 C30.4,28 30.2,27.6 29.9,27.2 C29.2,26.5 28,26.5 27.3,27.2 C27,27.5 26.8,28 26.8,28.5 C26.8,29 27,29.4 27.3,29.8 C27.7,30.2 28.1,30.3 28.6,30.3 C29,30.3 29.5,30.1 29.9,29.8" id="Path"></path>
                <path d="M35,34.9 C35.3,34.6 35.5,34.1 35.5,33.6 C35.5,33.1 35.3,32.7 35,32.3 C34.3,31.6 33.1,31.6 32.4,32.3 C32.1,32.6 31.9,33.1 31.9,33.6 C31.9,34.1 32.1,34.6 32.4,34.9 C32.8,35.3 33.2,35.4 33.7,35.4 C34.1,35.4 34.6,35.3 35,34.9" id="Path"></path>
                <path d="M40,40 C40.4,39.7 40.6,39.2 40.6,38.7 C40.6,38.2 40.4,37.8 40,37.4 C39.3,36.7 38,36.7 37.3,37.4 C36.9,37.7 36.7,38.2 36.7,38.7 C36.7,39.2 36.9,39.7 37.3,40 C37.7,40.4 38.2,40.5 38.7,40.5 C39.2,40.6 39.7,40.4 40,40" id="Path"></path>
                <path d="M45.7,43.8 C45.7,43.3 45.5,42.9 45.2,42.5 C44.5,41.8 43.3,41.8 42.6,42.5 C42.2,42.9 42.1,43.3 42.1,43.8 C42.1,44.3 42.3,44.7 42.6,45.1 C42.9,45.4 43.4,45.6 43.9,45.6 C44.4,45.6 44.8,45.4 45.2,45.1 C45.6,44.8 45.7,44.3 45.7,43.8 Z" id="Path"></path>
                <path d="M50.3,50.3 C50.7,49.9 50.8,49.5 50.8,49 C50.8,48.5 50.6,48.1 50.3,47.7 C49.6,47 48.4,47 47.7,47.7 C47.3,48.1 47.2,48.5 47.2,49 C47.2,49.5 47.4,49.9 47.7,50.3 C48,50.6 48.5,50.8 49,50.8 C49.5,50.8 50,50.6 50.3,50.3" id="Path"></path>
                <path d="M55.4,55.1 C55.8,54.8 56,54.3 56,53.8 C56,53.3 55.8,52.9 55.4,52.5 C54.6,51.8 53.4,51.8 52.7,52.5 C52.3,52.9 52.1,53.3 52.1,53.8 C52.1,54.3 52.3,54.7 52.7,55.1 C53.1,55.5 53.6,55.6 54.1,55.6 C54.5,55.7 55,55.5 55.4,55.1" id="Path"></path>
                <path d="M60.6,60.2 C60.9,59.9 61.1,59.4 61.1,58.9 C61.1,58.4 60.9,58 60.6,57.6 C59.9,56.9 58.7,56.9 58,57.6 C57.7,58 57.5,58.4 57.5,58.9 C57.5,59.4 57.7,59.8 58,60.2 C58.4,60.6 58.8,60.7 59.3,60.7 C59.7,60.8 60.2,60.6 60.6,60.2" id="Path"></path>
                <path d="M65.7,65.4 C66,65.1 66.2,64.6 66.2,64.1 C66.2,63.6 66,63.1 65.7,62.8 C65,62.1 63.8,62.1 63.1,62.8 C62.8,63.1 62.6,63.6 62.6,64.1 C62.6,64.6 62.8,65 63.1,65.4 C63.5,65.8 63.9,65.9 64.4,65.9 C64.9,65.9 65.3,65.7 65.7,65.4" id="Path"></path>
                <path d="M70.5,70.5 C70.9,70.2 71,69.7 71,69.2 C71,68.7 70.8,68.3 70.5,67.9 C69.8,67.2 68.6,67.2 67.9,67.9 C67.6,68.3 67.4,68.7 67.4,69.2 C67.4,69.7 67.6,70.2 67.9,70.5 C68.3,70.9 68.7,71 69.2,71 C69.7,71 70.2,70.9 70.5,70.5" id="Path"></path>
                <path d="M75.9,75.6 C76.3,75.3 76.4,74.8 76.4,74.3 C76.4,73.8 76.2,73.4 75.9,73 C75.2,72.3 74,72.3 73.3,73 C72.9,73.4 72.8,73.8 72.8,74.3 C72.8,74.8 73,75.3 73.3,75.6 C73.6,75.9 74.1,76.1 74.6,76.1 C75.1,76.1 75.6,76 75.9,75.6" id="Path"></path>
                <path d="M81,80.7 C81.4,80.3 81.6,79.9 81.6,79.4 C81.6,78.9 81.4,78.5 81,78.1 C80.2,77.4 79,77.4 78.3,78.1 C77.9,78.5 77.7,78.9 77.7,79.4 C77.7,79.9 77.9,80.3 78.3,80.7 C78.7,81 79.2,81.2 79.7,81.2 C80.1,81.3 80.6,81.1 81,80.7" id="Path"></path>
                <path d="M31.7,20.9 C36.9,17.5 42.6,15.9 48.9,15.8 C55.1,15.8 60.8,17.5 66.1,20.9 L77.1,9.9 C68.5,3.4 59.2,0.1 48.9,0.1 C38.6,0.1 29.2,3.4 20.8,9.9 L31.7,20.9 Z" id="Fill-9_1_"></path>
                <path d="M20.7,66 C17.2,60.7 15.5,55 15.5,48.9 C15.5,42.7 17.2,37 20.7,31.8 L9.8,20.9 C3.4,29.3 0.2,38.6 0.2,49 C0.2,59.2 3.4,68.6 9.9,77.1 L20.7,66 Z" id="Fill-10_1_"></path>
                <path d="M66.1,76.9 C60.9,80.4 55.2,82.2 49,82.3 C42.7,82.3 36.9,80.6 31.7,77 L20.7,87.9 C29.2,94.5 38.6,97.8 49,97.7 C59.3,97.6 68.6,94.3 77,87.9 L66.1,76.9 Z" id="Fill-11_1_"></path>
                <path d="M76.8,31.7 C80.3,37 82.1,42.8 82,49.1 C81.9,55.2 80.2,60.8 76.8,65.9 L87.8,76.8 C94.3,68.4 97.6,59.1 97.6,48.9 C97.7,38.5 94.4,29.1 87.8,20.6 L76.8,31.7 Z" id="Fill-12_1_"></path>
                <path d="M88.3,80.3 C92.5,80.3 96,83.7 96,88 C96,92.2 92.6,95.7 88.3,95.7 C84.1,95.7 80.6,92.3 80.6,88 C80.6,83.7 84,80.3 88.3,80.3" id="Fill-15_1_"></path>
                <path d="M9.7,80.3 C13.9,80.3 17.3,83.7 17.3,88 C17.3,92.2 13.9,95.7 9.7,95.7 C5.5,95.7 2.1,92.3 2.1,88 C2.1,83.7 5.5,80.3 9.7,80.3" id="Fill-16_1_"></path>
                <path d="M88.4,1.8 C92.6,1.8 96,5.2 96,9.5 C96,13.8 92.6,17.2 88.4,17.2 C84.2,17.2 80.8,13.8 80.8,9.5 C80.8,5.2 84.2,1.8 88.4,1.8" id="Fill-17_1_"></path>
                <path d="M9.6,1.8 C13.8,1.8 17.3,5.2 17.3,9.4 C17.3,13.6 13.9,17 9.6,17 C5.4,17 1.9,13.6 1.9,9.4 C1.9,5.2 5.3,1.8 9.6,1.8" id="Fill-18_1_"></path>
            </g>
            <path d="M154.5,63.4 L150.7,60 C148.4,62.7 143.8,64.3 139.9,64.3 C133.4,64.3 128.2,60.4 127.6,54.1 L156.4,54.1 C157.7,40.6 149.8,34.2 139.4,34.2 C129.2,34.2 121.8,41.5 121.8,51.8 C121.8,62.6 129.1,69.5 139.7,69.5 C145.1,69.4 151,67.4 154.5,63.4 L154.5,63.4 Z M151.2,49.3 L127.7,49.3 C128.7,42.8 133.8,39.2 139.7,39.2 C146.3,39.2 150.8,42.7 151.2,49.1 L151.2,49.3 L151.2,49.3 Z M170.4,20.7 L164.8,20.7 L164.8,68.8 L170.4,68.8 L170.4,20.7 Z M186.3,34.9 L181.1,34.9 L181.1,68.8 L186.7,68.8 L186.7,49.9 C186.7,43.7 191.2,39.8 196.7,39.7 C199,39.7 200.8,40.3 202.6,41.6 L205.1,36.8 C203,35.2 200.2,34.2 197.2,34.3 C193.3,34.3 189.1,35.5 186.8,39.9 L186.3,34.9 L186.3,34.9 Z M208.3,51.9 C208.3,62.2 215.7,69.4 225.9,69.4 C236.1,69.4 243.5,62.2 243.5,51.9 C243.5,41.4 236.2,34.1 225.9,34.1 C215.8,34.1 208.3,41.4 208.3,51.9 Z M237.9,51.9 C237.8,59 232.8,64.1 225.8,64.1 C218.9,64.1 213.9,59 213.9,51.9 C213.9,44.3 219,39.3 225.9,39.3 C232.7,39.3 237.9,44.4 237.9,51.9 Z M251.6,34.8 L251.6,68.8 L257.2,68.8 L257.2,50.6 C257.2,44.5 261.5,39.6 267.6,39.5 C274.1,39.5 277.9,43.6 277.9,50.1 L277.9,68.8 L283.5,68.8 L283.5,50.1 C283.5,40.1 277.2,34.4 268.6,34.4 C264.1,34.4 259.9,36.3 257,40.3 L256.7,34.9 L251.6,34.8 L251.6,34.8 Z M326.6,20.7 L321,20.7 L321,41 C318.6,36.4 313.1,34.2 308.3,34.2 C298.7,34.2 291.2,40.4 291.2,51.8 C291.2,63 298.7,69.4 308.4,69.4 C313.4,69.4 318.4,67.2 321.1,62.5 L321.4,68.7 L326.7,68.7 L326.6,20.7 L326.6,20.7 Z M308.8,39.5 C315.5,39.5 320.8,44.5 320.8,51.7 C320.8,59.1 315.5,64.1 308.8,64.1 C302.2,64.1 296.9,59.6 296.9,51.8 C296.9,43.9 302.1,39.6 308.6,39.5 L308.8,39.5 L308.8,39.5 Z" id="elrond_3_"></path>
        </g>
    </g>
</svg>